REM MD5 57c90cea2b115ce3bc3705a2d10ceeed
FILE "Dengeki PlayStation D31 (Japan).bin" BINARY
  TRACK 01 MODE2/2352
    INDEX 01 00:00:00
  TRACK 02 AUDIO
    INDEX 00 57:58:53
    INDEX 01 58:00:53
  TRACK 03 AUDIO
    INDEX 00 58:08:60
    INDEX 01 58:10:60
  TRACK 04 AUDIO
    INDEX 00 60:12:54
    INDEX 01 60:14:54
  TRACK 05 AUDIO
    INDEX 00 63:19:66
    INDEX 01 63:21:66
  TRACK 06 AUDIO
    INDEX 00 64:39:68
    INDEX 01 64:41:68
REM LEADOUT 67:52:31
